<svg width="40" height="40" viewBox="0 0 40 40" fill="none" xmlns="http://www.w3.org/2000/svg">
<path d="M36.2351 0.832299H3.76672C3.40174 0.82723 3.03935 0.894107 2.70022 1.02911C2.36109 1.16411 2.05188 1.3646 1.79025 1.61911C1.52861 1.87363 1.31967 2.17719 1.17537 2.51247C1.03107 2.84774 0.954218 3.20816 0.949219 3.57313V36.4248C0.954218 36.7898 1.03107 37.1502 1.17537 37.4855C1.31967 37.8207 1.52861 38.1243 1.79025 38.3788C2.05188 38.6333 2.36109 38.8338 2.70022 38.9688C3.03935 39.1038 3.40174 39.1707 3.76672 39.1656H36.2351C36.6 39.1707 36.9624 39.1038 37.3016 38.9688C37.6407 38.8338 37.9499 38.6333 38.2115 38.3788C38.4732 38.1243 38.6821 37.8207 38.8264 37.4855C38.9707 37.1502 39.0476 36.7898 39.0526 36.4248V3.57313C39.0476 3.20816 38.9707 2.84774 38.8264 2.51247C38.6821 2.17719 38.4732 1.87363 38.2115 1.61911C37.9499 1.3646 37.6407 1.16411 37.3016 1.02911C36.9624 0.894107 36.6 0.82723 36.2351 0.832299ZM12.5067 32.9173H6.75672V15.6673H12.5067V32.9173ZM9.63172 13.2523C8.83872 13.2523 8.0782 12.9373 7.51747 12.3765C6.95674 11.8158 6.64172 11.0553 6.64172 10.2623C6.64172 9.4693 6.95674 8.70878 7.51747 8.14805C8.0782 7.58732 8.83872 7.2723 9.63172 7.2723C10.0528 7.22454 10.4792 7.26627 10.8831 7.39474C11.2869 7.52321 11.6591 7.73554 11.9751 8.01781C12.2912 8.30008 12.5441 8.64593 12.7173 9.03272C12.8905 9.41951 12.98 9.83852 12.98 10.2623C12.98 10.6861 12.8905 11.1051 12.7173 11.4919C12.5441 11.8787 12.2912 12.2245 11.9751 12.5068C11.6591 12.7891 11.2869 13.0014 10.8831 13.1299C10.4792 13.2583 10.0528 13.3001 9.63172 13.2523ZM33.2451 32.9173H27.4951V23.6598C27.4951 21.3406 26.6709 19.8265 24.5817 19.8265C23.9352 19.8312 23.3056 20.034 22.7778 20.4075C22.2501 20.7811 21.8495 21.3074 21.6301 21.9156C21.4801 22.3661 21.4151 22.8406 21.4384 23.3148V32.8981H15.6884V15.6481H21.4384V18.0823C21.9607 17.1759 22.7205 16.4292 23.6357 15.9226C24.551 15.416 25.5871 15.1687 26.6326 15.2073C30.4659 15.2073 33.2451 17.6798 33.2451 22.989V32.9173Z" fill="black"/>
</svg>
