<svg width="46" height="36" viewBox="0 0 46 36" fill="none" xmlns="http://www.w3.org/2000/svg">
<path fill-rule="evenodd" clip-rule="evenodd" d="M16.4956 21.0682L23.0046 25.5187L29.279 21.1901L43.3435 35.066C42.9724 35.1871 42.5799 35.2485 42.1659 35.25H3.8341C3.3281 35.25 2.8451 35.1511 2.4012 34.974L16.4956 21.0682ZM46 9.6648V31.4159C46 31.984 45.8758 32.5222 45.655 33.0075L31.8688 19.4053L46 9.6648ZM0 9.7867L13.8966 19.2903L0.2438 32.7637C0.0838644 32.3323 0.00133168 31.876 0 31.4159L0 9.7867ZM42.1659 0.75C44.2819 0.75 46 2.4658 46 4.5841V5.9319L22.9954 21.7904L0 6.063V4.5841C0 2.4681 1.7158 0.75 3.8341 0.75H42.1659Z" fill="black"/>
</svg>
